<?xml version="1.0" standalone="no"?><!DOCTYPE svg PUBLIC "-//W3C//DTD SVG 1.1//EN" "http://www.w3.org/Graphics/SVG/1.1/DTD/svg11.dtd"><svg t="1622468104087" class="icon" viewBox="0 0 1024 1024" version="1.1" xmlns="http://www.w3.org/2000/svg" p-id="1712" xmlns:xlink="http://www.w3.org/1999/xlink" width="16" height="16"><defs><style type="text/css"></style></defs><path d="M896 512c0-211.2-172.8-384-384-384S128 300.8 128 512s172.8 384 384 384c102.4 0 201.6-41.6 272-112 12.8-12.8 32-12.8 44.8 0 12.8 12.8 12.8 32 0 44.8-83.2 83.2-195.2 131.2-316.8 131.2-246.4 0-448-201.6-448-448S265.6 64 512 64s448 201.6 448 448c0 89.6-70.4 160-160 160-51.2 0-96-22.4-124.8-60.8-35.2 54.4-96 92.8-163.2 92.8-105.6 0-192-86.4-192-192s86.4-192 192-192 192 86.4 192 192c0 54.4 41.6 96 96 96s96-41.6 96-96z m-384 128c70.4 0 128-57.6 128-128s-57.6-128-128-128-128 57.6-128 128 57.6 128 128 128z" p-id="1713" fill="#000000"></path></svg>